<mxfile host="app.diagrams.net" modified="2024-03-13T08:15:10.572Z" agent="Mozilla/5.0 (Windows NT 10.0; Win64; x64) AppleWebKit/537.36 (KHTML, like Gecko) Chrome/122.0.0.0 Safari/537.36" version="24.0.5" etag="Bjy8RgBrf_1bVl5jeEYZ" type="github">
  <diagram name="Trang-1" id="RibS8C91Ylyfn8nm5-Pp">
    <mxGraphModel>
      <root>
        <mxCell id="0" />
        <mxCell id="1" parent="0" />
      </root>
    </mxGraphModel>
  </diagram>
</mxfile>
